# This file uses centimeters as units for non-parametric coordinates.

mtllib InsideCorner_LP.mtl
g default
v -3.000000 0.000000 0.000000
v -0.000000 0.000000 0.000000
v -3.000000 0.875410 0.000000
v -0.000000 0.875410 0.000000
v -2.000000 0.000000 -1.000000
v -0.000000 0.000000 -1.000000
v -2.000000 1.499419 -1.000000
v -2.499534 1.499419 -0.499774
v -0.000000 1.499419 -1.000000
v -0.000000 1.499419 -0.500050
v -3.000000 0.000000 -3.000000
v -3.000000 0.875410 -3.000000
v -2.000000 0.000000 -3.000000
v -2.000000 1.499419 -3.000000
v -2.499950 1.499419 -3.000000
vt 0.127823 0.177166
vt 0.276980 0.178838
vt 0.274974 0.357756
vt 0.200403 0.356921
vt 0.126652 0.281625
vt 0.742444 0.394901
vt 0.742444 0.000000
vt 0.860823 0.000000
vt 0.860823 0.394901
vt 0.000000 1.000000
vt 0.000000 0.504273
vt 0.082629 0.504273
vt 0.082584 0.917302
vt 0.165242 0.834758
vt 0.165242 0.504273
vt 0.495727 1.000000
vt 0.495727 0.917371
vt 0.495727 0.834758
vt 0.427953 0.177166
vt 0.126652 0.177166
vt 0.506609 0.573814
vt 0.581184 0.573825
vt 0.655786 0.499372
vt 0.126068 0.378205
vt 0.504273 0.378205
vt 0.504273 0.504273
vt 0.000000 0.504273
vt 0.126068 0.000000
vt 0.000000 0.000000
vt 0.620159 0.394901
vt 0.620159 0.000000
vt 0.738538 0.000000
vt 0.738538 0.394901
vt 0.427997 0.282468
vt 0.427997 0.000000
vt 0.616976 0.000000
vt 0.616976 0.282468
vt 0.506636 0.394884
vt 0.655802 0.394907
vt 0.126652 0.000000
vt 0.427953 0.000000
vn 0.000000 0.000000 1.000000
vn 0.000000 0.000000 1.000000
vn 0.000000 0.000000 1.000000
vn 0.000000 0.000000 1.000000
vn 0.000039 0.625223 0.780447
vn 0.000039 0.625223 0.780447
vn 0.000039 0.625223 0.780447
vn 0.000039 0.625223 0.780446
vn 0.000000 0.000000 -1.000000
vn 0.000000 0.000000 -1.000000
vn 0.000000 0.000000 -1.000000
vn 0.000000 0.000000 -1.000000
vn 0.000000 -1.000000 0.000000
vn 0.000000 -1.000000 0.000000
vn 0.000000 -1.000000 0.000000
vn 0.000000 -1.000000 0.000000
vn 1.000000 0.000000 0.000000
vn 1.000000 0.000000 0.000000
vn 1.000000 0.000000 0.000000
vn 1.000000 0.000000 0.000000
vn 1.000000 0.000000 0.000000
vn 0.000000 1.000000 0.000000
vn 0.000000 1.000000 0.000000
vn 0.000000 1.000000 0.000000
vn 0.000000 1.000000 0.000000
vn -1.000000 0.000000 0.000000
vn -1.000000 0.000000 0.000000
vn -1.000000 0.000000 0.000000
vn -1.000000 0.000000 0.000000
vn -0.780216 0.625510 0.000059
vn -0.780216 0.625510 0.000059
vn -0.780216 0.625510 0.000059
vn -0.780216 0.625510 0.000059
vn 1.000000 0.000000 0.000000
vn 1.000000 0.000000 0.000000
vn 1.000000 0.000000 0.000000
vn 1.000000 0.000000 0.000000
vn 0.000000 -1.000000 0.000000
vn 0.000000 -1.000000 0.000000
vn 0.000000 -1.000000 0.000000
vn 0.000000 -1.000000 0.000000
vn 0.000000 0.000000 -1.000000
vn 0.000000 0.000000 -1.000000
vn 0.000000 0.000000 -1.000000
vn 0.000000 0.000000 -1.000000
vn 0.000000 0.000000 -1.000000
vn 0.000000 1.000000 -0.000000
vn 0.000000 1.000000 -0.000000
vn 0.000000 1.000000 -0.000000
vn 0.000000 1.000000 -0.000000
s off
g InsideCorner_LP
usemtl initialShadingGroup
f 1/30/1 2/31/2 4/32/3 3/33/4
f 3/10/5 4/11/6 10/12/7 8/13/8
f 7/34/9 9/35/10 6/36/11 5/37/12
f 5/24/13 6/25/14 2/26/15 1/27/16
s 1
f 2/1/17 6/2/18 4/5/19
f 9/3/20 10/4/21 6/2/18
f 6/2/18 10/4/21 4/5/19
s off
f 7/14/22 8/13/23 10/12/24 9/15/25
f 11/6/26 1/7/27 3/8/28 12/9/29
f 12/16/30 3/10/31 8/13/32 15/17/33
f 14/19/34 7/20/35 5/40/36 13/41/37
f 13/28/38 5/24/39 1/27/40 11/29/41
s 2
f 13/38/42 11/39/43 14/21/44
f 11/39/43 12/23/45 14/21/44
f 12/23/45 15/22/46 14/21/44
s off
f 14/18/47 15/17/48 8/13/49 7/14/50
