# This file uses centimeters as units for non-parametric coordinates.

mtllib InsideBend_LP.mtl
g default
v -1.999731 0.000000 -3.000000
v -1.564910 0.000000 -1.551704
v -1.999744 1.498839 -3.000000
v -1.570702 1.498839 -1.547186
v -2.999953 0.000000 -3.000000
v -2.218277 0.000000 -1.049091
v -3.000047 0.875062 -3.000000
v -2.499835 1.499419 -3.000000
v -2.218326 0.875062 -1.061584
v -1.896335 1.499419 -1.299490
v 0.000000 0.000000 -1.000000
v 0.000000 1.498839 -1.000000
v 0.000003 0.000000 -0.000000
v 0.000003 0.875062 -0.000000
v 0.000000 1.499419 -0.499950
v -1.920655 0.000000 -2.160046
v -1.918285 1.498839 -2.161852
v -2.363437 1.499419 -2.038145
v -2.807798 0.875062 -1.919463
v -2.807718 0.000000 -1.919463
v -1.982006 0.000000 -2.557072
v -1.982018 1.498839 -2.557072
v -2.466791 1.499419 -2.480227
v -2.952320 0.875062 -2.405224
v -2.952229 0.000000 -2.405224
v -1.995438 0.000000 -2.774582
v -1.995451 1.498839 -2.774582
v -2.491646 1.499419 -2.730985
v -2.988139 0.875062 -2.687940
v -2.988046 0.000000 -2.687940
v -2.424461 1.499419 -2.249611
v -1.957877 1.498839 -2.351470
v -1.957865 0.000000 -2.351470
v -2.892244 0.000000 -2.150823
v -2.892328 0.875062 -2.150824
v -2.179430 1.499419 -1.652193
v -1.785105 1.498839 -1.828425
v -1.785596 0.000000 -1.827922
v -2.563561 0.000000 -1.492932
v -2.563627 0.875062 -1.492932
v -1.867035 0.000000 -1.983698
v -1.860710 1.498839 -1.988362
v -2.282279 1.499419 -1.842542
v -2.698333 0.875062 -1.703063
v -2.698260 0.000000 -1.703063
v -2.049126 1.499419 -1.471537
v -1.689525 1.498839 -1.681031
v -1.685195 0.000000 -1.684276
v -2.403505 0.000000 -1.272351
v -2.403563 0.875062 -1.282021
v -0.886169 0.000000 -1.149592
v -0.886778 1.498839 -1.148981
v -1.069971 1.499419 -0.723017
v -1.244249 0.875062 -0.278895
v -1.244234 0.000000 -0.278895
v -0.550104 1.499419 -0.554131
v -0.452555 1.498839 -1.042835
v -0.452555 0.000000 -1.042835
v -0.643892 0.000000 -0.067546
v -0.643892 0.875062 -0.067546
v -0.276385 1.499419 -0.513528
v -0.227372 1.498839 -1.011170
v -0.227372 0.000000 -1.011170
v -0.325380 0.000000 -0.015985
v -0.325380 0.875062 -0.015985
v -0.673375 0.000000 -1.089042
v -0.673376 1.498839 -1.089042
v -0.816989 1.499419 -0.622907
v -0.951343 0.875062 -0.155295
v -0.951335 0.000000 -0.155295
v -1.263652 0.000000 -1.322006
v -1.266652 1.498839 -1.319426
v -1.524123 1.499419 -0.983956
v -1.775005 0.875062 -0.628875
v -1.774974 0.000000 -0.627137
v -1.306485 1.499419 -0.845088
v -1.085496 1.498839 -1.226141
v -1.083756 0.000000 -1.227891
v -1.519648 0.000000 -0.437279
v -1.519671 0.875062 -0.437279
v -1.424326 0.000000 -1.430576
v -1.428690 1.498839 -1.427005
v -1.721133 1.499419 -1.136365
v -2.008658 0.875062 -0.839480
v -2.008618 0.000000 -0.832861
vt 0.239933 0.512920
vt 0.733299 0.977330
vt 0.728776 0.646226
vt 0.241799 0.649502
vt 0.729554 0.703185
vt 0.242577 0.706460
vt 0.243677 0.786959
vt 0.730654 0.783683
vt 0.731743 0.863423
vt 0.077608 0.514012
vt 0.160629 0.650100
vt 0.078697 0.593752
vt 0.244766 0.866699
vt 0.246322 0.980605
vt 0.726910 0.509644
vt 0.239933 0.017354
vt 0.726910 0.014079
vt 0.728776 0.150660
vt 0.241799 0.153936
vt 0.729554 0.207619
vt 0.242577 0.210895
vt 0.243677 0.291393
vt 0.730654 0.288118
vt 0.731743 0.367858
vt 0.244766 0.371133
vt 0.733299 0.481764
vt 0.246322 0.485040
vt 0.889236 0.012987
vt 0.890325 0.092727
vt 0.809947 0.150167
vt 0.483422 0.511282
vt 0.489810 0.978967
vt 0.485287 0.647864
vt 0.486065 0.704823
vt 0.487165 0.785321
vt 0.488254 0.865061
vt 0.361677 0.512101
vt 0.368066 0.979786
vt 0.363543 0.648683
vt 0.364321 0.705641
vt 0.365421 0.786140
vt 0.366510 0.865880
vt 0.300805 0.512510
vt 0.307194 0.980196
vt 0.302671 0.649092
vt 0.303449 0.706051
vt 0.304549 0.786549
vt 0.305638 0.866289
vt 0.425193 0.705232
vt 0.424415 0.648273
vt 0.422549 0.511691
vt 0.428938 0.979377
vt 0.427382 0.865471
vt 0.426293 0.785730
vt 0.607810 0.704004
vt 0.607032 0.647045
vt 0.605166 0.510463
vt 0.611555 0.978149
vt 0.609999 0.864242
vt 0.608909 0.784502
vt 0.544294 0.510872
vt 0.550682 0.978558
vt 0.546160 0.647454
vt 0.546937 0.704413
vt 0.548037 0.784912
vt 0.549127 0.864652
vt 0.668682 0.703594
vt 0.667904 0.646635
vt 0.666038 0.510054
vt 0.672427 0.977739
vt 0.670871 0.863833
vt 0.669781 0.784093
vt 0.483422 0.015716
vt 0.489810 0.483402
vt 0.485287 0.152298
vt 0.486065 0.209257
vt 0.487165 0.289756
vt 0.488254 0.369496
vt 0.607810 0.208438
vt 0.607032 0.151479
vt 0.605166 0.014898
vt 0.611555 0.482583
vt 0.609999 0.368677
vt 0.608909 0.288937
vt 0.668682 0.208029
vt 0.667904 0.151070
vt 0.666038 0.014488
vt 0.672427 0.482174
vt 0.670871 0.368267
vt 0.669781 0.288527
vt 0.544294 0.015307
vt 0.550682 0.482993
vt 0.546160 0.151889
vt 0.546937 0.208848
vt 0.548037 0.289346
vt 0.549127 0.369086
vt 0.361677 0.016535
vt 0.368066 0.484221
vt 0.363543 0.153117
vt 0.364321 0.210076
vt 0.365421 0.290574
vt 0.366510 0.370315
vt 0.425193 0.209667
vt 0.424415 0.152708
vt 0.422549 0.016126
vt 0.428938 0.483811
vt 0.427382 0.369905
vt 0.426293 0.290165
vt 0.300805 0.016945
vt 0.307194 0.484630
vt 0.302671 0.153527
vt 0.303449 0.210485
vt 0.304549 0.290984
vt 0.305638 0.370724
vn 0.999819 0.000009 -0.019042
vn 0.999819 0.000009 -0.019042
vn 0.999200 0.000008 -0.039987
vn 0.999200 0.000008 -0.039987
vn 0.001165 0.999999 -0.000029
vn 0.001165 0.999999 -0.000029
vn 0.001168 0.999999 -0.000062
vn 0.001168 0.999999 -0.000061
vn -0.999273 -0.000107 0.038131
vn -0.999273 -0.000107 0.038131
vn -0.996796 -0.000106 0.079984
vn -0.996796 -0.000106 0.079984
vn 0.000000 -1.000000 0.000000
vn 0.000000 -1.000000 0.000000
vn 0.000000 -1.000000 0.000000
vn 0.000000 -1.000000 0.000000
vn 0.000000 0.000000 -1.000000
vn 0.000000 0.000000 -1.000000
vn 0.000000 0.000000 -1.000000
vn 0.000000 0.000000 -1.000000
vn 0.000000 0.000000 -1.000000
vn -0.780821 0.624171 0.027006
vn -0.780255 0.622895 0.056600
vn -0.780265 0.622912 0.056282
vn -0.780821 0.624171 0.027006
vn 0.649365 0.004252 -0.760465
vn 0.649365 0.004252 -0.760465
vn 0.602952 0.003656 -0.797769
vn 0.602900 0.003655 -0.797809
vn 0.000951 0.999999 -0.001065
vn 0.000951 0.999999 -0.001065
vn 0.000888 0.999999 -0.001099
vn 0.000879 0.999999 -0.001104
vn -0.722580 0.007512 0.691246
vn -0.722580 0.007512 0.691246
vn -0.693905 0.005492 0.720046
vn -0.694098 0.005505 0.719859
vn 0.000000 -1.000000 0.000000
vn 0.000000 -1.000000 0.000000
vn 0.000000 -1.000000 0.000000
vn 0.000000 -1.000000 0.000000
vn 1.000000 0.000000 -0.000003
vn 1.000000 0.000001 -0.000003
vn 1.000000 0.000000 -0.000003
vn 1.000000 0.000000 -0.000003
vn 1.000000 0.000005 -0.000000
vn -0.593686 0.543811 0.593133
vn -0.563311 0.552829 0.614053
vn -0.562682 0.553005 0.614471
vn -0.593686 0.543811 0.593133
vn 0.788312 0.002928 -0.615268
vn 0.744211 0.004243 -0.667931
vn 0.744211 0.004243 -0.667931
vn 0.788309 0.002928 -0.615273
vn 0.001106 0.999999 -0.000857
vn 0.001064 0.999999 -0.000946
vn 0.001064 0.999999 -0.000946
vn 0.001099 0.999999 -0.000871
vn -0.658981 0.537986 0.525657
vn -0.639990 0.535349 0.551194
vn -0.639990 0.535349 0.551194
vn -0.656714 0.537695 0.528783
vn -0.784925 0.005757 0.619565
vn -0.767585 0.008069 0.640897
vn -0.767585 0.008069 0.640897
vn -0.785122 0.005730 0.619315
vn 0.000000 -1.000000 0.000000
vn 0.000000 -1.000000 0.000000
vn 0.000000 -1.000000 0.000000
vn 0.000000 -1.000000 0.000000
vn 0.987764 -0.000427 -0.155953
vn 0.968479 -0.002121 -0.249085
vn 0.968466 -0.002122 -0.249137
vn 0.987764 -0.000427 -0.155953
vn 0.001193 0.999999 -0.000238
vn 0.001200 0.999999 -0.000370
vn 0.001200 0.999999 -0.000373
vn 0.001193 0.999999 -0.000236
vn -0.768035 0.607146 0.203707
vn -0.751631 0.591067 0.292729
vn -0.750728 0.590259 0.296651
vn -0.767778 0.606863 0.205510
vn -0.958482 -0.000093 0.285155
vn -0.917585 -0.000084 0.397540
vn -0.917586 -0.000084 0.397538
vn -0.958482 -0.000093 0.285153
vn 0.000000 -1.000000 0.000000
vn 0.000000 -1.000000 0.000000
vn 0.000000 -1.000000 0.000000
vn 0.000000 -1.000000 0.000000
vn 0.996080 0.000008 -0.088455
vn 0.996080 0.000008 -0.088455
vn 0.001179 0.999999 -0.000137
vn 0.001179 0.999999 -0.000135
vn -0.776687 0.617579 0.123912
vn -0.776672 0.617559 0.124105
vn -0.984461 -0.000101 0.175601
vn -0.984462 -0.000101 0.175599
vn 0.000000 -1.000000 0.000000
vn 0.000000 -1.000000 0.000000
vn 0.001193 0.999999 -0.000520
vn 0.001193 0.999999 -0.000528
vn 0.927523 -0.003127 -0.373753
vn 0.927475 -0.003126 -0.373871
vn 0.000000 -1.000000 0.000000
vn 0.000000 -1.000000 0.000000
vn -0.867864 -0.000073 0.496803
vn -0.867865 -0.000073 0.496800
vn -0.727945 0.570576 0.380183
vn -0.726450 0.569322 0.384894
vn 0.864349 -0.000622 -0.502893
vn 0.864343 -0.000622 -0.502902
vn 0.001165 0.999999 -0.000684
vn 0.001161 0.999999 -0.000698
vn -0.696600 0.550317 0.460325
vn -0.694084 0.549070 0.465585
vn -0.822259 0.001646 0.569111
vn -0.822260 0.001646 0.569109
vn 0.000000 -1.000000 0.000000
vn 0.000000 -1.000000 0.000000
vn 0.094231 0.000000 -0.995550
vn 0.049068 0.000000 -0.998796
vn 0.049068 0.000000 -0.998796
vn 0.094231 0.000000 -0.995550
vn 0.000112 0.999999 -0.001157
vn 0.000057 0.999999 -0.001161
vn 0.000057 0.999999 -0.001161
vn 0.000112 0.999999 -0.001157
vn -0.079120 0.624298 0.777169
vn -0.038320 0.624590 0.780012
vn -0.038320 0.624590 0.780012
vn -0.079231 0.624296 0.777160
vn -0.104329 0.000000 0.994543
vn -0.049069 0.000000 0.998796
vn -0.049069 0.000000 0.998796
vn -0.104329 0.000000 0.994543
vn 0.000000 -1.000000 0.000000
vn 0.000000 -1.000000 0.000000
vn 0.000000 -1.000000 0.000000
vn 0.000000 -1.000000 0.000000
vn 0.000463 0.999999 -0.001163
vn 0.000332 0.999999 -0.001152
vn 0.000330 0.999999 -0.001152
vn 0.000460 0.999999 -0.001163
vn 0.318082 0.000629 -0.948063
vn 0.238262 0.000125 -0.971201
vn 0.238261 0.000125 -0.971201
vn 0.318067 0.000628 -0.948068
vn 0.000000 -1.000000 0.000000
vn 0.000000 -1.000000 0.000000
vn 0.000000 -1.000000 0.000000
vn 0.000000 -1.000000 0.000000
vn -0.444468 -0.000008 0.895795
vn -0.332067 -0.000003 0.943256
vn -0.332068 -0.000003 0.943255
vn -0.444469 -0.000008 0.895795
vn -0.341157 0.605086 0.719363
vn -0.252478 0.614544 0.747389
vn -0.254206 0.614400 0.746922
vn -0.343443 0.604787 0.718526
vn 0.000218 0.999999 -0.001151
vn 0.000218 0.999999 -0.001151
vn 0.171998 0.000000 -0.985097
vn 0.171998 0.000000 -0.985097
vn 0.000000 -1.000000 0.000000
vn 0.000000 -1.000000 0.000000
vn -0.217238 -0.000001 0.976119
vn -0.217238 -0.000001 0.976119
vn -0.162933 0.620925 0.766750
vn -0.163595 0.620884 0.766642
vn 0.412429 0.001506 -0.910989
vn 0.412394 0.001506 -0.911005
vn 0.000605 0.999999 -0.001169
vn 0.000600 0.999999 -0.001169
vn -0.423804 0.590862 0.686493
vn -0.426004 0.590383 0.685542
vn -0.549544 0.000384 0.835465
vn -0.549545 0.000384 0.835464
vn 0.000000 -1.000000 0.000000
vn 0.000000 -1.000000 0.000000
vn 0.000750 0.999999 -0.001151
vn 0.000742 0.999999 -0.001153
vn 0.508293 0.002533 -0.861180
vn 0.508241 0.002533 -0.861211
vn 0.000000 -1.000000 0.000000
vn 0.000000 -1.000000 0.000000
vn -0.632087 0.002146 0.774895
vn -0.632141 0.002148 0.774850
vn -0.498707 0.571703 0.651496
vn -0.499601 0.571436 0.651045
s 1
g InsideBend_LP
usemtl initialShadingGroup
f 1/1/1 3/4/2 27/45/3 26/43/4
s 2
f 3/4/5 8/6/6 28/46/7 27/45/8
s 3
f 7/7/9 5/13/10 30/48/11 29/47/12
s 4
f 5/13/13 1/14/14 26/44/15 30/48/16
s 5
f 1/1/17 5/10/18 3/4/19
f 5/10/18 7/12/20 3/4/19
f 7/12/20 8/11/21 3/4/19
s 6
f 7/7/22 29/47/23 28/46/24 8/6/25
s 7
f 2/16/26 4/19/27 82/111/28 81/109/29
s 8
f 4/19/30 10/21/31 83/112/32 82/111/33
s 9
f 9/22/34 6/25/35 85/114/36 84/113/37
s 10
f 6/25/38 2/27/39 81/110/40 85/114/41
s 11
f 11/17/42 12/18/43 13/28/44
f 13/28/44 12/18/43 14/29/45
f 12/18/43 15/30/46 14/29/45
s 12
f 9/22/47 84/113/48 83/112/49 10/21/50
s 1
f 47/68/51 4/3/52 2/15/53 48/69/54
s 2
f 46/67/55 10/5/56 4/3/57 47/68/58
s 6
f 50/72/59 9/8/60 10/5/61 46/67/62
s 3
f 49/71/63 6/9/64 9/8/65 50/72/66
s 4
f 48/70/67 2/2/68 6/9/69 49/71/70
s 1
f 32/50/71 17/33/72 16/31/73 33/51/74
s 2
f 31/49/75 18/34/76 17/33/77 32/50/78
s 6
f 35/54/79 19/35/80 18/34/81 31/49/82
s 3
f 34/53/83 20/36/84 19/35/85 35/54/86
s 4
f 33/52/87 16/32/88 20/36/89 34/53/90
s 1
f 27/45/3 22/39/91 21/37/92 26/43/4
s 2
f 28/46/7 23/40/93 22/39/94 27/45/8
s 6
f 29/47/23 24/41/95 23/40/96 28/46/24
s 3
f 30/48/11 25/42/97 24/41/98 29/47/12
s 4
f 26/44/15 21/38/99 25/42/100 30/48/16
s 2
f 23/40/93 31/49/75 32/50/78 22/39/94
s 1
f 22/39/91 32/50/71 33/51/74 21/37/92
s 4
f 21/38/99 33/52/87 34/53/90 25/42/100
s 3
f 25/42/97 34/53/83 35/54/86 24/41/98
s 6
f 24/41/95 35/54/79 31/49/82 23/40/96
s 2
f 18/34/76 43/64/101 42/63/102 17/33/77
s 1
f 17/33/72 42/63/103 41/61/104 16/31/73
s 4
f 16/32/88 41/62/105 45/66/106 20/36/89
s 3
f 20/36/84 45/66/107 44/65/108 19/35/85
s 6
f 19/35/80 44/65/109 43/64/110 18/34/81
s 1
f 42/63/103 37/56/111 38/57/112 41/61/104
s 2
f 43/64/101 36/55/113 37/56/114 42/63/102
s 6
f 44/65/109 40/60/115 36/55/116 43/64/110
s 3
f 45/66/107 39/59/117 40/60/118 44/65/108
s 4
f 41/62/105 38/58/119 39/59/120 45/66/106
s 2
f 36/55/113 46/67/55 47/68/58 37/56/114
s 1
f 37/56/111 47/68/51 48/69/54 38/57/112
s 4
f 38/58/119 48/70/67 49/71/70 39/59/120
s 3
f 39/59/117 49/71/63 50/72/66 40/60/118
s 6
f 40/60/115 50/72/59 46/67/62 36/55/116
s 7
f 62/86/121 12/18/122 11/17/123 63/87/124
s 8
f 61/85/125 15/20/126 12/18/127 62/86/128
s 12
f 65/90/129 14/23/130 15/20/131 61/85/132
s 9
f 64/89/133 13/24/134 14/23/135 65/90/136
s 10
f 63/88/137 11/26/138 13/24/139 64/89/140
s 8
f 53/76/141 68/94/142 67/93/143 52/75/144
s 7
f 52/75/145 67/93/146 66/91/147 51/73/148
s 10
f 51/74/149 66/92/150 70/96/151 55/78/152
s 9
f 55/78/153 70/96/154 69/95/155 54/77/156
s 12
f 54/77/157 69/95/158 68/94/159 53/76/160
s 8
f 56/79/161 61/85/125 62/86/128 57/80/162
s 7
f 57/80/163 62/86/121 63/87/124 58/81/164
s 10
f 58/82/165 63/88/137 64/89/140 59/83/166
s 9
f 59/83/167 64/89/133 65/90/136 60/84/168
s 12
f 60/84/169 65/90/129 61/85/132 56/79/170
s 7
f 67/93/146 57/80/163 58/81/164 66/91/147
s 8
f 68/94/142 56/79/161 57/80/162 67/93/143
s 12
f 69/95/158 60/84/169 56/79/170 68/94/159
s 9
f 70/96/154 59/83/167 60/84/168 69/95/155
s 10
f 66/92/150 58/82/165 59/83/166 70/96/151
s 7
f 77/104/171 52/75/145 51/73/148 78/105/172
s 8
f 76/103/173 53/76/141 52/75/144 77/104/174
s 12
f 80/108/175 54/77/157 53/76/160 76/103/176
s 9
f 79/107/177 55/78/153 54/77/156 80/108/178
s 10
f 78/106/179 51/74/149 55/78/152 79/107/180
s 8
f 73/100/181 76/103/173 77/104/174 72/99/182
s 7
f 72/99/183 77/104/171 78/105/172 71/97/184
s 10
f 71/98/185 78/106/179 79/107/180 75/102/186
s 9
f 75/102/187 79/107/177 80/108/178 74/101/188
s 12
f 74/101/189 80/108/175 76/103/176 73/100/190
s 7
f 82/111/28 72/99/183 71/97/184 81/109/29
s 8
f 83/112/32 73/100/181 72/99/182 82/111/33
s 12
f 84/113/48 74/101/189 73/100/190 83/112/49
s 9
f 85/114/36 75/102/187 74/101/188 84/113/37
s 10
f 81/110/40 71/98/185 75/102/186 85/114/41
