# This file uses centimeters as units for non-parametric coordinates.

mtllib OutsideBend_LP.mtl
g default
v -3.999732 0.000000 -4.000000
v -2.979123 0.000000 -1.189983
v -3.999744 1.498839 -4.000000
v -2.984915 1.498839 -1.195815
v -2.999953 0.000000 -4.000000
v -2.218277 0.000000 -1.843163
v -3.000047 0.875062 -4.000000
v -3.499735 1.499419 -4.000000
v -2.218326 0.875062 -1.843163
v -2.603372 1.499419 -1.521377
v 0.000000 0.000000 0.000000
v 0.000000 1.498839 0.000000
v 0.000003 0.000000 -1.000000
v 0.000003 0.875062 -1.000000
v 0.000000 1.499419 -0.500050
v -3.768414 0.000000 -2.444433
v -3.766044 1.498839 -2.442036
v -3.287225 1.499419 -2.616486
v -2.807798 0.875062 -2.790000
v -2.807718 0.000000 -2.790000
v -3.943576 0.000000 -3.184106
v -3.943588 1.498839 -3.184106
v -3.447479 1.499419 -3.275940
v -2.952320 0.875062 -3.368397
v -2.952229 0.000000 -3.368397
v -3.985807 0.000000 -3.583467
v -3.985820 1.498839 -3.583467
v -3.486731 1.499419 -3.630990
v -2.988139 0.875062 -3.678683
v -2.988046 0.000000 -3.678683
v -3.381306 1.499419 -2.937224
v -3.871757 1.498839 -2.804071
v -3.871745 0.000000 -2.804071
v -2.892244 0.000000 -3.071530
v -2.892328 0.875062 -3.071530
v -3.010816 1.499419 -2.032686
v -3.448044 1.498839 -1.776375
v -3.448535 0.000000 -1.776879
v -2.563561 0.000000 -2.278660
v -2.563627 0.875062 -2.278660
v -3.630877 0.000000 -2.104947
v -3.624552 1.498839 -2.098561
v -3.164112 1.499419 -2.314785
v -2.698333 0.875062 -2.525314
v -2.698260 0.000000 -2.525314
v -2.822060 1.499419 -1.766110
v -3.235546 1.498839 -1.475899
v -3.231216 0.000000 -1.471542
v -2.403505 0.000000 -2.050998
v -2.403563 0.875062 -2.050998
v -1.651536 0.000000 -0.327280
v -1.652144 1.498839 -0.327891
v -1.452616 1.499419 -0.781709
v -1.244249 0.875062 -1.226502
v -1.244234 0.000000 -1.226502
v -0.745175 1.499419 -0.573444
v -0.842735 1.498839 -0.083002
v -0.842735 0.000000 -0.083002
v -0.643892 0.000000 -1.060029
v -0.643892 0.875062 -1.060029
v -0.374392 1.499419 -0.518443
v -0.423406 1.498839 -0.020801
v -0.423406 0.000000 -0.020801
v -0.325380 0.000000 -1.015985
v -0.325380 0.875062 -1.015985
v -1.253944 0.000000 -0.186006
v -1.253945 1.498839 -0.186006
v -1.107245 1.499419 -0.662984
v -0.951343 0.875062 -1.130597
v -0.951335 0.000000 -1.130597
v -2.374792 0.000000 -0.702949
v -2.377793 1.498839 -0.705969
v -2.079638 1.499419 -1.101378
v -1.775005 0.875062 -1.490072
v -1.774974 0.000000 -1.490072
v -1.777834 1.499419 -0.928356
v -2.028290 1.498839 -0.502094
v -2.026550 0.000000 -0.500344
v -1.519648 0.000000 -1.346697
v -1.519671 0.875062 -1.346697
v -2.693113 0.000000 -0.933344
v -2.697477 1.498839 -0.937737
v -2.355462 1.499419 -1.299448
v -2.008658 0.875062 -1.656114
v -2.008618 0.000000 -1.656114
vt 0.239933 0.512920
vt 0.733299 0.977330
vt 0.728776 0.646226
vt 0.241799 0.649502
vt 0.729554 0.703185
vt 0.242577 0.706460
vt 0.243677 0.786959
vt 0.730654 0.783683
vt 0.731743 0.863423
vt 0.077608 0.514012
vt 0.160629 0.650100
vt 0.078697 0.593752
vt 0.244766 0.866699
vt 0.246322 0.980605
vt 0.726910 0.509644
vt 0.239933 0.017354
vt 0.726910 0.014079
vt 0.728776 0.150660
vt 0.241799 0.153936
vt 0.729554 0.207619
vt 0.242577 0.210895
vt 0.243677 0.291393
vt 0.730654 0.288118
vt 0.731743 0.367858
vt 0.244766 0.371133
vt 0.733299 0.481764
vt 0.246322 0.485040
vt 0.889236 0.012987
vt 0.890325 0.092727
vt 0.809947 0.150167
vt 0.483422 0.511282
vt 0.489810 0.978967
vt 0.485287 0.647864
vt 0.486065 0.704823
vt 0.487165 0.785321
vt 0.488254 0.865061
vt 0.361677 0.512101
vt 0.368066 0.979786
vt 0.363543 0.648683
vt 0.364321 0.705641
vt 0.365421 0.786140
vt 0.366510 0.865880
vt 0.300805 0.512510
vt 0.307194 0.980196
vt 0.302671 0.649092
vt 0.303449 0.706051
vt 0.304549 0.786549
vt 0.305638 0.866289
vt 0.425193 0.705232
vt 0.424415 0.648273
vt 0.422549 0.511691
vt 0.428938 0.979377
vt 0.427382 0.865471
vt 0.426293 0.785730
vt 0.607810 0.704004
vt 0.607032 0.647045
vt 0.605166 0.510463
vt 0.611555 0.978149
vt 0.609999 0.864242
vt 0.608909 0.784502
vt 0.544294 0.510872
vt 0.550682 0.978558
vt 0.546160 0.647454
vt 0.546937 0.704413
vt 0.548037 0.784912
vt 0.549127 0.864652
vt 0.668682 0.703594
vt 0.667904 0.646635
vt 0.666038 0.510054
vt 0.672427 0.977739
vt 0.670871 0.863833
vt 0.669781 0.784093
vt 0.483422 0.015716
vt 0.489810 0.483402
vt 0.485287 0.152298
vt 0.486065 0.209257
vt 0.487165 0.289756
vt 0.488254 0.369496
vt 0.607810 0.208438
vt 0.607032 0.151479
vt 0.605166 0.014898
vt 0.611555 0.482583
vt 0.609999 0.368677
vt 0.608909 0.288937
vt 0.668682 0.208029
vt 0.667904 0.151070
vt 0.666038 0.014488
vt 0.672427 0.482174
vt 0.670871 0.368267
vt 0.669781 0.288527
vt 0.544294 0.015307
vt 0.550682 0.482993
vt 0.546160 0.151889
vt 0.546937 0.208848
vt 0.548037 0.289346
vt 0.549127 0.369086
vt 0.361677 0.016535
vt 0.368066 0.484221
vt 0.363543 0.153117
vt 0.364321 0.210076
vt 0.365421 0.290574
vt 0.366510 0.370315
vt 0.425193 0.209667
vt 0.424415 0.152708
vt 0.422549 0.016126
vt 0.428938 0.483811
vt 0.427382 0.369905
vt 0.426293 0.290165
vt 0.300805 0.016945
vt 0.307194 0.484630
vt 0.302671 0.153527
vt 0.303449 0.210485
vt 0.304549 0.290984
vt 0.305638 0.370724
vn -0.999442 -0.000009 0.033410
vn -0.997640 -0.000008 0.068665
vn -0.997640 -0.000008 0.068665
vn -0.999442 -0.000009 0.033410
vn -0.001161 0.999999 0.000040
vn -0.001155 0.999999 0.000082
vn -0.001155 0.999999 0.000081
vn -0.001161 0.999999 0.000040
vn 0.999314 0.000107 -0.037034
vn 0.997157 0.000106 -0.075347
vn 0.997157 0.000106 -0.075348
vn 0.999314 0.000107 -0.037034
vn 0.000000 -1.000000 0.000000
vn 0.000000 -1.000000 0.000000
vn 0.000000 -1.000000 0.000000
vn 0.000000 -1.000000 0.000000
vn 0.000000 0.000000 -1.000000
vn 0.000000 0.000000 -1.000000
vn 0.000000 0.000000 -1.000000
vn 0.000000 0.000000 -1.000000
vn 0.000000 0.000000 -1.000000
vn 0.780245 0.624840 -0.028157
vn 0.780245 0.624840 -0.028157
vn 0.777815 0.625845 -0.057640
vn 0.777862 0.625832 -0.057143
vn -0.667970 0.000275 0.744188
vn -0.627608 0.000421 0.778530
vn -0.627820 0.000420 0.778358
vn -0.667970 0.000275 0.744188
vn -0.000780 0.999999 0.000869
vn -0.000736 0.999999 0.000909
vn -0.000731 0.999999 0.000913
vn -0.000780 0.999999 0.000869
vn 0.665718 0.000034 -0.746204
vn 0.623017 0.000029 -0.782208
vn 0.623015 0.000029 -0.782210
vn 0.665718 0.000034 -0.746204
vn 0.000000 -1.000000 0.000000
vn 0.000000 -1.000000 0.000000
vn 0.000000 -1.000000 0.000000
vn 0.000000 -1.000000 0.000000
vn 1.000000 0.000000 0.000003
vn 1.000000 0.000000 0.000003
vn 1.000000 0.000001 0.000003
vn 1.000000 0.000000 0.000003
vn 1.000000 0.000005 0.000000
vn 0.521475 0.622623 -0.583442
vn 0.521475 0.622623 -0.583442
vn 0.490399 0.621625 -0.610812
vn 0.487911 0.621500 -0.612927
vn -0.781425 -0.000275 0.624000
vn -0.781242 -0.000275 0.624229
vn -0.745108 -0.000249 0.666944
vn -0.745108 -0.000249 0.666944
vn -0.000899 0.999999 0.000720
vn -0.000902 0.999999 0.000716
vn -0.000863 0.999999 0.000772
vn -0.000863 0.999999 0.000772
vn 0.607836 0.628841 -0.484865
vn 0.609400 0.628952 -0.482753
vn 0.581556 0.626403 -0.519049
vn 0.581556 0.626403 -0.519049
vn 0.783586 0.000052 -0.621283
vn 0.783588 0.000052 -0.621281
vn 0.746534 0.000045 -0.665347
vn 0.746534 0.000045 -0.665347
vn 0.000000 -1.000000 0.000000
vn 0.000000 -1.000000 0.000000
vn 0.000000 -1.000000 0.000000
vn 0.000000 -1.000000 0.000000
vn -0.972819 0.000259 0.231565
vn -0.972819 0.000259 0.231565
vn -0.944622 0.001051 0.328158
vn -0.944577 0.001053 0.328288
vn -0.001113 0.999999 0.000267
vn -0.001112 0.999999 0.000269
vn -0.001077 0.999999 0.000377
vn -0.001077 0.999999 0.000376
vn 0.753942 0.630265 -0.185303
vn 0.753745 0.630290 -0.186019
vn 0.730682 0.632387 -0.257275
vn 0.730771 0.632382 -0.257033
vn 0.970175 0.000094 -0.242406
vn 0.970175 0.000094 -0.242405
vn 0.942335 0.000086 -0.334671
vn 0.942334 0.000086 -0.334673
vn 0.000000 -1.000000 0.000000
vn 0.000000 -1.000000 0.000000
vn 0.000000 -1.000000 0.000000
vn 0.000000 -1.000000 0.000000
vn -0.989460 -0.000008 0.144805
vn -0.989460 -0.000008 0.144805
vn -0.001139 0.999999 0.000171
vn -0.001139 0.999999 0.000169
vn 0.769146 0.627816 -0.119420
vn 0.769290 0.627787 -0.118645
vn 0.987778 0.000101 -0.155867
vn 0.987778 0.000101 -0.155868
vn 0.000000 -1.000000 0.000000
vn 0.000000 -1.000000 0.000000
vn -0.001031 0.999999 0.000490
vn -0.001031 0.999999 0.000491
vn -0.902157 0.001231 0.431405
vn -0.901976 0.001228 0.431784
vn 0.000000 -1.000000 0.000000
vn 0.000000 -1.000000 0.000000
vn 0.902402 0.000076 -0.430895
vn 0.902401 0.000076 -0.430897
vn 0.699132 0.633245 -0.331987
vn 0.698843 0.633245 -0.332595
vn -0.846907 0.000290 0.531741
vn -0.846889 0.000290 0.531769
vn -0.000972 0.999999 0.000605
vn -0.000971 0.999999 0.000607
vn 0.658391 0.632065 -0.408675
vn 0.657400 0.632010 -0.410351
vn 0.849353 0.000064 -0.527826
vn 0.849351 0.000064 -0.527828
vn 0.000000 -1.000000 0.000000
vn 0.000000 -1.000000 0.000000
vn -0.098017 0.000000 0.995185
vn -0.098017 0.000000 0.995185
vn -0.049068 0.000000 0.998796
vn -0.049068 0.000000 0.998796
vn -0.000114 0.999999 0.001156
vn -0.000114 0.999999 0.001156
vn -0.000057 0.999999 0.001161
vn -0.000057 0.999999 0.001161
vn 0.074613 0.624401 -0.777533
vn 0.074683 0.624399 -0.777527
vn 0.038320 0.624590 -0.780012
vn 0.038320 0.624590 -0.780012
vn 0.092826 0.000000 -0.995682
vn 0.092826 0.000000 -0.995682
vn 0.049069 0.000000 -0.998796
vn 0.049069 0.000000 -0.998796
vn 0.000000 -1.000000 0.000000
vn 0.000000 -1.000000 0.000000
vn 0.000000 -1.000000 0.000000
vn 0.000000 -1.000000 0.000000
vn -0.000436 0.999999 0.001087
vn -0.000438 0.999999 0.001087
vn -0.000334 0.999999 0.001117
vn -0.000333 0.999999 0.001117
vn -0.377408 0.000254 0.926047
vn -0.377379 0.000254 0.926059
vn -0.289357 0.000062 0.957221
vn -0.289357 0.000062 0.957221
vn 0.000000 -1.000000 0.000000
vn 0.000000 -1.000000 0.000000
vn 0.000000 -1.000000 0.000000
vn 0.000000 -1.000000 0.000000
vn 0.355416 0.000006 -0.934708
vn 0.355416 0.000006 -0.934708
vn 0.267210 0.000003 -0.963638
vn 0.267210 0.000003 -0.963638
vn 0.283894 0.617651 -0.733425
vn 0.285721 0.617623 -0.732738
vn 0.216715 0.619465 -0.754518
vn 0.215564 0.619510 -0.754811
vn -0.000226 0.999999 0.001140
vn -0.000226 0.999999 0.001140
vn -0.195091 -0.000000 0.980785
vn -0.195091 -0.000000 0.980785
vn 0.000000 -1.000000 0.000000
vn 0.000000 -1.000000 0.000000
vn 0.180104 0.000000 -0.983648
vn 0.180104 0.000000 -0.983648
vn 0.146318 0.622326 -0.768961
vn 0.146796 0.622307 -0.768886
vn -0.461547 0.000482 0.887116
vn -0.461463 0.000481 0.887159
vn -0.000537 0.999999 0.001046
vn -0.000541 0.999999 0.001044
vn 0.352686 0.617418 -0.703142
vn 0.355018 0.617438 -0.701949
vn 0.444776 0.000012 -0.895642
vn 0.444778 0.000012 -0.895641
vn 0.000000 -1.000000 0.000000
vn 0.000000 -1.000000 0.000000
vn -0.000636 0.999999 0.000988
vn -0.000641 0.999999 0.000985
vn -0.545241 0.000571 0.838279
vn -0.545093 0.000571 0.838375
vn 0.000000 -1.000000 0.000000
vn 0.000000 -1.000000 0.000000
vn 0.534718 0.000020 -0.845030
vn 0.534720 0.000020 -0.845029
vn 0.421188 0.618792 -0.663097
vn 0.423776 0.618874 -0.661369
s 1
g OutsideBend_LP
usemtl initialShadingGroup
f 1/1/1 26/43/2 27/45/3 3/4/4
s 2
f 3/4/5 27/45/6 28/46/7 8/6/8
s 3
f 7/7/9 29/47/10 30/48/11 5/13/12
s 4
f 5/13/13 30/48/14 26/44/15 1/14/16
s 5
f 5/10/17 1/1/18 7/12/19
f 3/4/20 8/11/21 1/1/18
f 1/1/18 8/11/21 7/12/19
s 6
f 7/7/22 8/6/23 28/46/24 29/47/25
s 7
f 2/16/26 81/109/27 82/111/28 4/19/29
s 8
f 4/19/30 82/111/31 83/112/32 10/21/33
s 9
f 9/22/34 84/113/35 85/114/36 6/25/37
s 10
f 6/25/38 85/114/39 81/110/40 2/27/41
s 11
f 11/17/42 13/28/43 12/18/44
f 13/28/43 14/29/45 12/18/44
f 14/29/45 15/30/46 12/18/44
s 12
f 9/22/47 10/21/48 83/112/49 84/113/50
s 1
f 47/68/51 48/69/52 2/15/53 4/3/54
s 2
f 46/67/55 47/68/56 4/3/57 10/5/58
s 6
f 50/72/59 46/67/60 10/5/61 9/8/62
s 3
f 49/71/63 50/72/64 9/8/65 6/9/66
s 4
f 48/70/67 49/71/68 6/9/69 2/2/70
s 1
f 32/50/71 33/51/72 16/31/73 17/33/74
s 2
f 31/49/75 32/50/76 17/33/77 18/34/78
s 6
f 35/54/79 31/49/80 18/34/81 19/35/82
s 3
f 34/53/83 35/54/84 19/35/85 20/36/86
s 4
f 33/52/87 34/53/88 20/36/89 16/32/90
s 1
f 27/45/3 26/43/2 21/37/91 22/39/92
s 2
f 28/46/7 27/45/6 22/39/93 23/40/94
s 6
f 29/47/25 28/46/24 23/40/95 24/41/96
s 3
f 30/48/11 29/47/10 24/41/97 25/42/98
s 4
f 26/44/15 30/48/14 25/42/99 21/38/100
s 2
f 23/40/94 22/39/93 32/50/76 31/49/75
s 1
f 22/39/92 21/37/91 33/51/72 32/50/71
s 4
f 21/38/100 25/42/99 34/53/88 33/52/87
s 3
f 25/42/98 24/41/97 35/54/84 34/53/83
s 6
f 24/41/96 23/40/95 31/49/80 35/54/79
s 2
f 18/34/78 17/33/77 42/63/101 43/64/102
s 1
f 17/33/74 16/31/73 41/61/103 42/63/104
s 4
f 16/32/90 20/36/89 45/66/105 41/62/106
s 3
f 20/36/86 19/35/85 44/65/107 45/66/108
s 6
f 19/35/82 18/34/81 43/64/109 44/65/110
s 1
f 42/63/104 41/61/103 38/57/111 37/56/112
s 2
f 43/64/102 42/63/101 37/56/113 36/55/114
s 6
f 44/65/110 43/64/109 36/55/115 40/60/116
s 3
f 45/66/108 44/65/107 40/60/117 39/59/118
s 4
f 41/62/106 45/66/105 39/59/119 38/58/120
s 2
f 36/55/114 37/56/113 47/68/56 46/67/55
s 1
f 37/56/112 38/57/111 48/69/52 47/68/51
s 4
f 38/58/120 39/59/119 49/71/68 48/70/67
s 3
f 39/59/118 40/60/117 50/72/64 49/71/63
s 6
f 40/60/116 36/55/115 46/67/60 50/72/59
s 7
f 62/86/121 63/87/122 11/17/123 12/18/124
s 8
f 61/85/125 62/86/126 12/18/127 15/20/128
s 12
f 65/90/129 61/85/130 15/20/131 14/23/132
s 9
f 64/89/133 65/90/134 14/23/135 13/24/136
s 10
f 63/88/137 64/89/138 13/24/139 11/26/140
s 8
f 53/76/141 52/75/142 67/93/143 68/94/144
s 7
f 52/75/145 51/73/146 66/91/147 67/93/148
s 10
f 51/74/149 55/78/150 70/96/151 66/92/152
s 9
f 55/78/153 54/77/154 69/95/155 70/96/156
s 12
f 54/77/157 53/76/158 68/94/159 69/95/160
s 8
f 56/79/161 57/80/162 62/86/126 61/85/125
s 7
f 57/80/163 58/81/164 63/87/122 62/86/121
s 10
f 58/82/165 59/83/166 64/89/138 63/88/137
s 9
f 59/83/167 60/84/168 65/90/134 64/89/133
s 12
f 60/84/169 56/79/170 61/85/130 65/90/129
s 7
f 67/93/148 66/91/147 58/81/164 57/80/163
s 8
f 68/94/144 67/93/143 57/80/162 56/79/161
s 12
f 69/95/160 68/94/159 56/79/170 60/84/169
s 9
f 70/96/156 69/95/155 60/84/168 59/83/167
s 10
f 66/92/152 70/96/151 59/83/166 58/82/165
s 7
f 77/104/171 78/105/172 51/73/146 52/75/145
s 8
f 76/103/173 77/104/174 52/75/142 53/76/141
s 12
f 80/108/175 76/103/176 53/76/158 54/77/157
s 9
f 79/107/177 80/108/178 54/77/154 55/78/153
s 10
f 78/106/179 79/107/180 55/78/150 51/74/149
s 8
f 73/100/181 72/99/182 77/104/174 76/103/173
s 7
f 72/99/183 71/97/184 78/105/172 77/104/171
s 10
f 71/98/185 75/102/186 79/107/180 78/106/179
s 9
f 75/102/187 74/101/188 80/108/178 79/107/177
s 12
f 74/101/189 73/100/190 76/103/176 80/108/175
s 7
f 82/111/28 81/109/27 71/97/184 72/99/183
s 8
f 83/112/32 82/111/31 72/99/182 73/100/181
s 12
f 84/113/50 83/112/49 73/100/190 74/101/189
s 9
f 85/114/36 84/113/35 74/101/188 75/102/187
s 10
f 81/110/40 85/114/39 75/102/186 71/98/185
