# This file uses centimeters as units for non-parametric coordinates.

mtllib OutsideCorner_LP.mtl
g default
v -3.990674 0.000000 -0.000000
v 0.000000 0.000000 -0.000000
v -3.990674 1.498839 -0.000000
v 0.000000 1.498839 -0.000000
v -2.990674 0.000000 -1.000000
v 0.000000 0.000000 -1.000000
v -2.990674 0.875062 -1.000000
v -3.490208 1.499419 -0.499774
v 0.000000 0.875062 -1.000000
v 0.000000 1.499419 -0.500050
v -3.990674 0.000000 -4.000000
v -3.990674 1.498839 -4.000000
v -2.990674 0.000000 -4.000000
v -2.990674 0.875062 -4.000000
v -3.490623 1.499419 -4.000000
vt 0.192816 0.132581
vt 0.317816 0.132581
vt 0.317816 0.220087
vt 0.255322 0.282523
vt 0.192816 0.282465
vt 0.699517 0.500000
vt 0.699517 0.000000
vt 0.849401 0.000000
vt 0.849401 0.500000
vt 0.628692 0.000000
vt 0.628692 0.407485
vt 0.533606 0.407485
vt 0.533606 0.000000
vt 0.696537 0.000000
vt 0.696537 0.475430
vt 0.000000 0.000000
vt 0.530323 0.000000
vt 0.530323 0.066297
vt 0.066352 0.066260
vt 0.132581 0.132581
vt 0.530323 0.132581
vt 0.000000 0.530323
vt 0.066297 0.530323
vt 0.192261 0.507581
vt 0.567261 0.507581
vt 0.567261 0.632581
vt 0.067261 0.632581
vt 0.192261 0.132581
vt 0.067261 0.132581
vt 0.569478 1.000000
vt 0.569478 0.500000
vt 0.719362 0.500000
vt 0.719362 1.000000
vt 0.851976 0.375000
vt 0.851976 0.000000
vt 0.939482 0.000000
vt 0.939482 0.375000
vt 0.443370 0.282523
vt 0.318370 0.282523
vt 0.318370 0.132639
vt 0.380876 0.132581
vt 0.443370 0.195016
vn 0.000000 0.000000 1.000000
vn 0.000000 0.000000 1.000000
vn 0.000000 0.000000 1.000000
vn 0.000000 0.000000 1.000000
vn 0.000000 0.999999 0.001162
vn 0.000000 0.999999 0.001162
vn 0.000000 0.999999 0.001162
vn 0.000000 0.999999 0.001162
vn 0.000000 0.000000 -1.000000
vn 0.000000 0.000000 -1.000000
vn 0.000000 0.000000 -1.000000
vn 0.000000 0.000000 -1.000000
vn 0.000000 -1.000000 0.000000
vn 0.000000 -1.000000 0.000000
vn 0.000000 -1.000000 0.000000
vn 0.000000 -1.000000 0.000000
vn 1.000000 0.000000 0.000000
vn 1.000000 0.000000 0.000000
vn 1.000000 0.000000 0.000000
vn 1.000000 0.000000 0.000000
vn 1.000000 0.000000 0.000000
vn -0.000033 0.625146 -0.780508
vn -0.000033 0.625146 -0.780508
vn -0.000033 0.625146 -0.780508
vn -0.000033 0.625146 -0.780508
vn -1.000000 0.000000 0.000000
vn -1.000000 0.000000 0.000000
vn -1.000000 0.000000 0.000000
vn -1.000000 0.000000 0.000000
vn -0.001161 0.999999 0.000000
vn -0.001161 0.999999 0.000000
vn -0.001161 0.999999 0.000000
vn -0.001161 0.999999 0.000000
vn 1.000000 0.000000 0.000000
vn 1.000000 0.000000 0.000000
vn 1.000000 0.000000 0.000000
vn 1.000000 0.000000 0.000000
vn 0.000000 -1.000000 0.000000
vn 0.000000 -1.000000 0.000000
vn 0.000000 -1.000000 0.000000
vn 0.000000 -1.000000 0.000000
vn 0.000000 0.000000 -1.000000
vn -0.000000 0.000000 -1.000000
vn -0.000000 0.000000 -1.000000
vn -0.000000 0.000000 -1.000000
vn 0.000000 0.000000 -1.000000
vn 0.780703 0.624903 -0.000050
vn 0.780703 0.624903 -0.000050
vn 0.780703 0.624903 -0.000050
vn 0.780703 0.624903 -0.000050
s off
g OutsideCorner_LP
usemtl initialShadingGroup
f 1/30/1 2/31/2 4/32/3 3/33/4
f 3/16/5 4/17/6 10/18/7 8/19/8
f 7/34/9 9/35/10 6/36/11 5/37/12
f 5/24/13 6/25/14 2/26/15 1/27/16
s 1
f 2/1/17 6/2/18 4/5/19
f 6/2/18 9/3/20 4/5/19
f 9/3/20 10/4/21 4/5/19
s off
f 7/20/22 8/19/23 10/18/24 9/21/25
f 11/6/26 1/7/27 3/8/28 12/9/29
f 12/22/30 3/16/31 8/19/32 15/23/33
f 14/10/34 7/11/35 5/12/36 13/13/37
f 13/28/38 5/24/39 1/27/40 11/29/41
s 2
f 13/38/42 11/39/43 14/42/44
f 14/42/44 11/39/43 15/41/45
f 11/39/43 12/40/46 15/41/45
s off
f 14/10/47 15/14/48 8/15/49 7/11/50
