# This file uses centimeters as units for non-parametric coordinates.

mtllib Wall_LP.mtl
g default
v -3.000000 0.000000 0.000000
v 0.000000 0.000000 0.000000
v -3.000000 1.498839 0.000000
v 0.000000 1.498839 0.000000
v -3.000000 0.000000 -1.000000
v 0.000000 0.000000 -1.000000
v -3.000000 0.875062 -1.000000
v -3.000000 1.499419 -0.500050
v 0.000000 0.875062 -1.000000
v 0.000000 1.499419 -0.500050
vt 0.239933 0.017354
vt 0.733299 0.481764
vt 0.728776 0.150660
vt 0.241799 0.153936
vt 0.729554 0.207619
vt 0.242577 0.210895
vt 0.243677 0.291393
vt 0.730654 0.288118
vt 0.731743 0.367858
vt 0.077608 0.018446
vt 0.890325 0.092727
vt 0.809947 0.150167
vt 0.889236 0.012987
vt 0.160629 0.154535
vt 0.078697 0.098186
vt 0.244766 0.371133
vt 0.246322 0.485040
vt 0.726910 0.014079
vn 0.000000 0.000000 1.000000
vn 0.000000 0.000000 1.000000
vn 0.000000 0.000000 1.000000
vn 0.000000 0.000000 1.000000
vn 0.000000 0.999999 0.001161
vn 0.000000 0.999999 0.001161
vn 0.000000 0.999999 0.001161
vn 0.000000 0.999999 0.001161
vn 0.000000 0.000000 -1.000000
vn 0.000000 0.000000 -1.000000
vn 0.000000 0.000000 -1.000000
vn 0.000000 0.000000 -1.000000
vn 0.000000 -1.000000 0.000000
vn 0.000000 -1.000000 0.000000
vn 0.000000 -1.000000 0.000000
vn 0.000000 -1.000000 0.000000
vn 1.000000 0.000000 0.000000
vn 1.000000 0.000000 0.000000
vn 1.000000 0.000000 0.000000
vn 1.000000 0.000000 0.000000
vn 1.000000 0.000000 0.000000
vn -1.000000 0.000000 0.000000
vn -1.000000 0.000000 -0.000000
vn -1.000000 0.000000 0.000000
vn -1.000000 0.000000 -0.000000
vn -1.000000 0.000000 -0.000000
vn 0.000000 0.625049 -0.780586
vn 0.000000 0.625049 -0.780586
vn 0.000000 0.625049 -0.780586
vn 0.000000 0.625049 -0.780586
s off
g Wall_LP
usemtl initialShadingGroup
f 1/1/1 2/18/2 4/3/3 3/4/4
f 3/4/5 4/3/6 10/5/7 8/6/8
f 7/7/9 9/8/10 6/9/11 5/16/12
f 5/16/13 6/9/14 2/2/15 1/17/16
s 1
f 2/18/17 6/13/18 4/3/19
f 6/13/18 9/11/20 4/3/19
f 9/11/20 10/12/21 4/3/19
s 2
f 5/10/22 1/1/23 7/15/24
f 3/4/25 8/14/26 1/1/23
f 1/1/23 8/14/26 7/15/24
s off
f 7/7/27 8/6/28 10/5/29 9/8/30
